<?xml version="1.0" encoding="utf-8"?>
<!-- Generator: Adobe Illustrator 21.1.0, SVG Export Plug-In . SVG Version: 6.00 Build 0)  -->
<svg version="1.1" id="Layer_1" xmlns="http://www.w3.org/2000/svg" xmlns:xlink="http://www.w3.org/1999/xlink" x="0px" y="0px"
	 viewBox="0 0 105.9 62.9" style="enable-background:new 0 0 105.9 62.9;" xml:space="preserve">
<style type="text/css">
	.st0{fill-rule:evenodd;clip-rule:evenodd;fill:#808285;}
	.st1{fill:#808285;}
</style>
<g>
	<path class="st0" d="M60.5,5.7c2.5,1.6,5.5,6,6.6,9.2c1.2,3.6,0.1,7.2-2.9,9.8c-4.8,4.2-7.9,7.2-10.1,9.9
		c-1.7,2.1-3.9,4.8-3.7,10.3C45.9,39.2,45,30.7,50,25.1c5.4-6,6.4-7.3,8.3-9.9C60.2,12.8,60.8,9.3,60.5,5.7L60.5,5.7z"/>
	<path class="st0" d="M39.8,32.4C27.1,21.2,30.6,5.6,49.2,1.2c2-0.5,2.8-0.7,3.8-1.2c1.1,2.2,1.2,3.8-1.4,5.7
		C45.1,10.2,35.2,16.2,39.8,32.4L39.8,32.4z"/>
	<path class="st0" d="M13.7,62.4c-1,0.4-1.5,0.6-3,0.6C4.8,62.9,0,58,0,52c0-6.1,4.8-11,10.7-11c1,0,2,0.1,3,0.5l0,5.4
		c-0.9-0.5-1.9-0.8-3.1-0.8c-3.2,0-5.8,2.6-5.8,5.8c0,3.2,2.6,5.8,5.8,5.8c1.3,0,2.1-0.3,2.9-0.8L13.7,62.4L13.7,62.4z"/>
	<path class="st0" d="M82.7,52c0,6.1-4.8,11-10.7,11c-5.9,0-10.7-4.9-10.7-11c0-6.1,4.8-11,10.7-11C77.9,41,82.7,45.9,82.7,52
		L82.7,52z M72,46.1c-3.2,0-5.8,2.6-5.8,5.8c0,3.2,2.6,5.8,5.8,5.8c3.2,0,5.8-2.6,5.8-5.8C77.8,48.7,75.2,46.1,72,46.1L72,46.1z"/>
	<path class="st0" d="M38.2,62.6H33V49.4c0-4.4,3.6-8.3,8-8.3c4.4,0,8,3.9,8,8.3v13.3h-5.2l0-13.3c0-1.9-1.2-3.1-2.8-3.1
		c-1.5,0-2.8,1.3-2.8,3.1L38.2,62.6L38.2,62.6z"/>
	<path class="st0" d="M89.3,62.6H84V49.4c0-4.4,3.6-8.3,8-8.3c4.4,0,8,3.9,8,8.3v13.3h-5.2l0-13.3c0-1.9-1.2-3.1-2.8-3.1
		c-1.5,0-2.8,1.3-2.8,3.1L89.3,62.6L89.3,62.6z"/>
	<path class="st0" d="M20.6,57l0,5.6l-5.2,0V49.4c0-4.4,3.6-8.3,8-8.3c4.4,0,8,3.9,8,8.3v13.3h-5.2V57H20.6L20.6,57z M26.2,52.1
		v-2.6c0-1.9-1.2-3.1-2.8-3.1c-1.4,0-2.8,1.3-2.8,3.1l0,2.7H26.2L26.2,52.1z"/>
	<path class="st0" d="M57.6,49.2l1.6,3c2.8,5,0,12-8.9,10.3v-4.9c3.6,1.3,5.6-0.6,4-3.6c0,0-1.1-2-2-3.6c-2.1-3.7,0.6-10.1,8.1-8.9
		v5C58.7,45.1,56.1,46.5,57.6,49.2L57.6,49.2z"/>
	<path class="st1" d="M105.9,44c0,0.6-0.2,1.1-0.6,1.5c-0.4,0.4-0.9,0.6-1.5,0.6c-0.6,0-1.1-0.2-1.5-0.6l0,0
		c-0.4-0.4-0.6-0.9-0.6-1.5c0-0.6,0.2-1.1,0.6-1.5c0.4-0.4,0.9-0.6,1.5-0.6s1.1,0.2,1.5,0.6C105.7,42.9,105.9,43.4,105.9,44
		L105.9,44z M105.1,45.4c0.3-0.3,0.6-0.8,0.6-1.4c0-0.5-0.2-1-0.6-1.4c-0.3-0.3-0.8-0.6-1.4-0.6c-0.5,0-1,0.2-1.4,0.6
		c-0.3,0.3-0.6,0.8-0.6,1.4c0,0.5,0.2,1,0.6,1.4l0,0c0.3,0.3,0.8,0.6,1.4,0.6C104.3,45.9,104.8,45.7,105.1,45.4L105.1,45.4z"/>
	<path class="st0" d="M103.2,43.2h0.7c0.2,0,0.4,0.1,0.4,0.4c0,0.3-0.1,0.4-0.4,0.4h-0.7V43.2L103.2,43.2z M102.8,45.3h0.4v-1h0.6
		c0.4,0,0.5,0.2,0.5,0.6c0,0.1,0,0.3,0.1,0.4h0.5c-0.1-0.1-0.1-0.4-0.1-0.6c0-0.4-0.2-0.5-0.4-0.5v0c0.1,0,0.4-0.1,0.4-0.6
		c0-0.4-0.3-0.7-0.8-0.7h-1.2V45.3L102.8,45.3z"/>
</g>
</svg>
