<?xml version="1.0" encoding="utf-8"?>
<!-- Generator: Adobe Illustrator 21.1.0, SVG Export Plug-In . SVG Version: 6.00 Build 0)  -->
<svg version="1.1" id="Layer_1" xmlns="http://www.w3.org/2000/svg" xmlns:xlink="http://www.w3.org/1999/xlink" x="0px" y="0px"
	 viewBox="0 0 156.5 62.5" style="enable-background:new 0 0 156.5 62.5;" xml:space="preserve">
<style type="text/css">
	.st0{fill:#4D4D4F;}
	.st1{fill:#808285;}
</style>
<path class="st0" d="M5.1,32.6C4.8,24.8,36.3,12.9,75.4,6.1c39.1-6.8,71-6,71.3,1.9c0.3,7.8-31.2,19.7-70.3,26.5
	c-17.8,3.1-34,4.6-46.5,4.6C14.8,39.1,5.2,36.9,5.1,32.6 M113.6,0c-11.1,0-23.7,0.9-37.1,2.5C34.2,7.6,0.1,19.6,0,29.5v0.1
	c0,0,0,0.1,0,0.1c0.3,9.9,34.2,14.6,76.8,9.6c42.6-5.1,81.1-15.4,79.4-26.8C155,3.9,138.9,0.1,115.5,0H113.6z"/>
<g>
	<path class="st1" d="M59.8,22.6c0,1.1,0.2,1.7,1.1,1.7c0.9,0,1.1-0.6,1.1-1.7v-5.3h3.3v5.3c0,2.7-1.4,4-4.5,4c-3,0-4.5-1.4-4.5-4.1
		v-5.2h3.4V22.6z"/>
	<polygon class="st1" points="66.8,17.3 70.3,17.3 70.3,23.7 74.5,23.7 74.5,26.4 66.8,26.4 	"/>
	<polygon class="st1" points="72.5,17.3 82,17.3 82,19.9 79,19.9 79,26.4 75.5,26.4 75.5,19.9 72.5,19.9 	"/>
	<path class="st1" d="M86.2,19.3h0.7c1.1,0,1.6,0.2,1.6,1c0,0.8-0.5,1-1.6,1h-0.7V19.3z M82.9,26.4h3.4v-3.1H87
		c1.1,0,1.2,0.4,1.3,1.4l0.3,1.7h3.6L91.6,24c-0.2-1.1-0.8-1.7-2-1.8c1.5-0.3,2.3-1.1,2.3-2.4c0-1.8-1.2-2.5-3.5-2.5h-5.5V26.4z"/>
	<path class="st1" d="M97.2,22.3l1-3.1l1,3.1H97.2z M96.7,24.4h2.9l0.6,2h3.6l-3.2-9.1h-4.8l-3.2,9.1h3.5L96.7,24.4z"/>
	<path class="st1" d="M111.3,18.7c-0.6-0.2-1.3-0.4-2-0.4c-2.2,0-3.6,1.4-3.6,3.5c0,2.2,1.4,3.5,3.6,3.5c0.7,0,1.4-0.1,2-0.4l0,1.1
		c-0.6,0.2-1.4,0.3-2.2,0.3c-3,0-4.8-1.8-4.8-4.5c0-2.8,1.9-4.6,4.9-4.6c0.8,0,1.5,0.1,2.2,0.4L111.3,18.7z"/>
	<polygon class="st1" points="114.1,17.3 114.1,21.2 118.2,21.2 118.2,17.3 119.5,17.3 119.5,26.4 118.2,26.4 118.2,22.2 
		114.1,22.2 114.1,26.4 112.8,26.4 112.8,17.3 	"/>
	<path class="st1" d="M123,18.3h0.9c1.4,0,2.1,0.5,2.1,1.5c0,1-0.7,1.6-2,1.6h-1V18.3z M121.7,17.3v9.1h1.3v-4h0.7
		c0.8,0,1.3,0.2,1.6,1.1l1.2,3h1.4l-1.4-3.3c-0.3-0.7-0.5-1.1-1.2-1.3c1.3-0.3,2-1.1,2-2.2c0-1.5-1.1-2.3-3.1-2.3H121.7z"/>
	<path class="st1" d="M132.9,18.1c1.7,0,2.8,1.4,2.8,3.7c0,2.3-1.2,3.7-2.8,3.7c-1.7,0-2.8-1.4-2.8-3.7
		C130.1,19.6,131.3,18.1,132.9,18.1 M132.9,17.1c-2.5,0-4.1,1.8-4.1,4.7c0,3,1.6,4.7,4.1,4.7c2.5,0,4.1-1.8,4.1-4.7
		C137.1,18.9,135.4,17.1,132.9,17.1"/>
	<path class="st1" d="M140.8,17.3l2.7,7.1c0.1,0.3,0.2,0.7,0.2,1.2c0.1-0.6,0.1-1,0.2-1.2l2.8-7.1h1.9v9.1h-1.2v-7.2
		c0-0.5,0-0.9,0.1-1.4c-0.1,0.5-0.2,0.9-0.4,1.3l-2.9,7.3h-1.1l-2.9-7.4c-0.1-0.2-0.2-0.6-0.3-1.1c0.1,0.8,0.1,1.3,0.1,1.4v7.1h-1.1
		v-9.1H140.8z"/>
	<polygon class="st1" points="155.8,17.3 155.8,18.3 152.2,18.3 152.2,21.2 155.6,21.2 155.6,22.2 152.2,22.2 152.2,25.4 
		155.9,25.4 155.9,26.4 150.9,26.4 150.9,17.3 	"/>
	<polygon class="st1" points="1.1,17.3 8.9,17.3 8.9,19.5 4.4,19.5 4.4,20.7 8.7,20.7 8.7,22.9 4.4,22.9 4.4,24.2 9,24.2 9,26.4 
		1.1,26.4 	"/>
	<path class="st1" d="M13.7,21.7v-2.3h0.5c1.1,0,1.7,0.2,1.7,1.1c0,0.9-0.6,1.1-1.7,1.1H13.7z M10.3,26.4h3.4v-2.6h2
		c2.4,0,3.7-1.1,3.7-3.3c0-1.3-0.5-2.3-1.4-2.8c-0.7-0.4-1.6-0.4-2.7-0.4h-5V26.4z"/>
	<path class="st1" d="M20.4,23.8c1.2,0.5,2.3,0.7,3.2,0.7c0.9,0,1.4-0.2,1.4-0.7c0-0.6-0.8-0.6-2.1-0.9c-1.8-0.4-2.6-1.3-2.6-2.8
		c0-1.9,1.5-3,4.5-3c1.1,0,2.1,0.1,3.2,0.3v2.4c-1-0.4-1.9-0.5-2.6-0.5c-1,0-1.5,0.3-1.5,0.7c0,0.5,0.7,0.5,2,0.8
		c1.9,0.4,2.7,1.2,2.7,2.8c0,2-1.5,3.1-4.6,3.1c-1.2,0-2.4-0.2-3.5-0.5V23.8z"/>
	<path class="st1" d="M35.7,21.8c0,1.7-0.5,2.6-1.4,2.6c-0.9,0-1.4-0.9-1.4-2.6c0-1.7,0.5-2.6,1.4-2.6
		C35.2,19.3,35.7,20.2,35.7,21.8 M34.3,17.1c-3.1,0-5,1.7-5,4.8c0,3,1.9,4.8,5,4.8c3.1,0,5-1.8,5-4.8C39.2,18.8,37.4,17.1,34.3,17.1
		"/>
	<polygon class="st1" points="40.4,17.3 45.6,17.3 47.4,23.9 47.4,17.3 50.3,17.3 50.3,26.4 45.2,26.4 43.4,19.4 43.4,26.4 
		40.4,26.4 	"/>
	<rect x="142.4" y="38.8" class="st1" width="1.2" height="5.4"/>
	<path class="st1" d="M146.5,38.8l2.2,3.8c0.1,0.2,0.2,0.5,0.4,1c-0.1-0.6-0.1-1-0.1-1.2v-3.5h1.1v5.4h-1.5l-2.3-3.9
		c-0.1-0.2-0.2-0.5-0.4-0.9c0.1,0.7,0.2,1.1,0.2,1.3v3.5H145v-5.4H146.5z"/>
	<polygon class="st1" points="152.7,38.8 152.7,41.1 154.9,38.8 156.3,38.8 153.8,41.3 156.5,44.2 155,44.2 152.7,41.6 152.7,44.2 
		151.4,44.2 151.4,38.8 	"/>
	<polygon class="st1" points="117,34.3 117,34.3 120.7,28 127.3,28 122.2,35.6 127.8,44.2 120.8,44.2 117,37.3 117,37.3 117,44.2 
		111.2,44.2 111.2,28 117,28 	"/>
	<path class="st1" d="M130.4,34.3c0.4,0,0.8,0,1.2,0c1,0,2.9,0,2.9-1.4c0-1.3-1.2-1.6-2.2-1.6c-1.4,0-2.8,0.3-3.7,0.6v-3.6
		c1.5-0.5,3-0.6,5-0.6c2.9,0,6.6,1.2,6.6,4.5c0,2-1.2,3.1-2.9,3.7v0c1.8,0.5,3.1,1.7,3.1,3.7c0,3.5-3.5,4.8-6.7,4.8
		c-1.8,0-3.9-0.3-5.3-0.7V40c0.9,0.3,2.4,0.7,3.8,0.7c1.3,0,2.4-0.2,2.4-1.5c0-1.4-1.5-1.6-2.5-1.6c-0.6,0-1.2,0.1-1.9,0.2V34.3z"/>
	<path class="st1" d="M55.6,55.5l-2.2,6.7h-1l-2.2-6.7h1l1.7,5.3c0,0,0,0.1,0.1,0.1c0,0,0.1,0,0.1-0.1l1.6-5.3H55.6z"/>
	<polygon class="st1" points="59.5,61.7 60.1,61.7 60.1,56.1 59.5,56.1 59.5,55.5 61.6,55.5 61.6,56.1 61.1,56.1 61.1,61.7 
		61.6,61.7 61.6,62.3 59.5,62.3 	"/>
	<path class="st1" d="M70.9,55.5l-2.2,6.7h-1l-2.2-6.7h1l1.7,5.3c0,0,0,0.1,0.1,0.1c0,0,0.1,0,0.1-0.1l1.6-5.3H70.9z"/>
	<polygon class="st1" points="74.9,61.7 75.4,61.7 75.4,56.1 74.9,56.1 74.9,55.5 77,55.5 77,56.1 76.4,56.1 76.4,61.7 77,61.7 
		77,62.3 74.9,62.3 	"/>
	<path class="st1" d="M81.5,62.3v-6.7H83c2.2,0,3.1,1.3,3.1,3.5c0,0.4-0.1,1.3-0.5,2c-0.3,0.5-0.9,1.3-2.6,1.3H81.5z M82.4,56.4v5
		h0.7c1.6,0,2-1.3,2-2.5c0-0.6-0.1-1.4-0.5-1.9c-0.4-0.4-0.9-0.6-1.7-0.6H82.4z"/>
	<path class="st1" d="M98.5,62.3l-1.6-6.1c0,0,0-0.1-0.1-0.1c0,0-0.1,0-0.1,0.1v6.1H96v-6.7h1.4l1.4,5.2c0,0.1,0,0.1,0.1,0.1
		c0.1,0,0.1,0,0.1-0.1l1.4-5.2h1.4v6.7h-0.8v-6.1c0-0.1,0-0.1-0.1-0.1c0,0-0.1,0-0.1,0.1l-1.6,6.1H98.5z"/>
	<path class="st1" d="M110.2,60.9h-2.7l-0.4,1.4h-1l2.2-6.7h1.1l2.3,6.7h-1L110.2,60.9z M109.9,60.1l-1.1-3.4c0,0,0,0,0,0
		c0,0,0,0,0,0l-1,3.4H109.9z"/>
	<path class="st1" d="M118.8,57.2c-0.1-0.3-0.3-1-1.1-1c-0.2,0-0.9,0.1-1.2,1.2c-0.2,0.6-0.2,1.5-0.2,1.5c0,0.7,0.1,1.4,0.4,2
		c0.3,0.7,0.9,0.7,1.1,0.7c0.5,0,0.8-0.3,0.9-0.4c0.4-0.4,0.4-0.8,0.4-1.2h-1.3v-0.9h2.2v3.2h-0.3l-0.2-0.4
		c-0.1-0.2-0.1-0.2-0.2-0.2c0,0-0.1,0-0.1,0c0,0-0.1,0.1-0.1,0.1c-0.2,0.2-0.6,0.5-1.3,0.5c-0.3,0-0.9,0-1.5-0.7
		c-0.6-0.8-0.8-2-0.8-2.8c0-0.8,0.1-1.8,0.5-2.5c0.5-0.9,1.4-1.1,1.8-1.1c1.1,0,1.8,0.8,2,1.6L118.8,57.2z"/>
	<polygon class="st1" points="124.8,55.5 129,55.5 129,56.4 125.8,56.4 125.8,58.3 128.1,58.3 128.1,59.2 125.8,59.2 125.8,61.4 
		129.1,61.4 129.1,62.3 124.8,62.3 	"/>
	<path class="st1" d="M133.7,55.5h1.2l1.9,4.3c0,0,0.3,0.7,0.3,0.7c0,0.1,0.2,0.7,0.3,0.8c0,0,0,0,0.1,0c0,0,0,0,0-0.1
		c0-0.1,0-0.6,0-0.7c0-0.4,0-0.8,0-1v-4h0.8v6.7H137l-2-4.4c-0.2-0.6-0.5-1.3-0.5-1.4c0,0,0,0,0,0c-0.1,0-0.1,0.1-0.1,0.1
		c0,0.2,0,1.2,0,1.2v4.5h-0.8V55.5z"/>
	<polygon class="st1" points="147.3,55.5 147.3,56.4 145.4,56.4 145.4,62.3 144.4,62.3 144.4,56.4 142.5,56.4 142.5,55.5 	"/>
	<path class="st1" d="M154.5,60.9h-2.7l-0.4,1.4h-1l2.2-6.7h1.1l2.3,6.7h-1L154.5,60.9z M154.3,60.1l-1.1-3.4c0,0,0,0,0,0
		c0,0,0,0,0,0l-1,3.4H154.3z"/>
	<rect x="1.1" y="51.6" class="st1" width="154.8" height="0.4"/>
</g>
</svg>
