<?xml version="1.0" encoding="utf-8"?>
<!-- Generator: Adobe Illustrator 23.0.2, SVG Export Plug-In . SVG Version: 6.00 Build 0)  -->
<svg version="1.1" id="Layer_1" xmlns="http://www.w3.org/2000/svg" xmlns:xlink="http://www.w3.org/1999/xlink" x="0px" y="0px"
	 viewBox="0 0 347 38" style="enable-background:new 0 0 347 38;" xml:space="preserve">
<style type="text/css">
	.st0{filter:url(#THE_KREMLIN_RED_SQUARE);}
	.st1{enable-background:new    ;}
	.st2{fill:#FFFFFF;}
</style>
<filter  filterUnits="userSpaceOnUse" height="38" id="THE_KREMLIN_RED_SQUARE" width="347" x="0" y="0">
	<feOffset  dy="4" input="SourceAlpha"></feOffset>
	<feGaussianBlur  result="blur"></feGaussianBlur>
	<feFlood  flood-opacity="0.161"></feFlood>
	<feComposite  in2="blur" operator="in"></feComposite>
	<feComposite  in="SourceGraphic" operator="over"></feComposite>
</filter>
<g id="Kremlin" transform="translate(-169 -47.383)">
	<g transform="matrix(1, 0, 0, 1, 169, 47.38)" class="st0">
		<g class="st1">
			<path class="st2" d="M12.7,7.9H7.8V26H5.4V7.9H0.6V5.8h12.2V7.9z"/>
			<path class="st2" d="M28.1,5.8V26h-2.4v-9.2h-7.6V26h-2.4V5.8h2.4v9h7.6v-9H28.1z"/>
			<path class="st2" d="M42.1,16.7h-6.6v7.4H43V26h-9.8V5.8H43v1.9h-7.4v7.1h6.6V16.7z"/>
			<path class="st2" d="M64.9,26l-7-9.4V26h-2.4V5.8H58v8.8l6.3-8.8h2.7l-7,9.6L67.8,26H64.9z"/>
			<path class="st2" d="M80.6,26l-4.5-7.9h-2.9V26h-2.4V5.8H75c2.2,0,3.9,0.5,5.1,1.5c1.2,1,1.8,2.6,1.8,4.7c0,0.8-0.1,1.4-0.3,2
				c-0.2,0.6-0.4,1.1-0.8,1.6c-0.3,0.4-0.7,0.8-1.1,1.1c-0.4,0.3-0.9,0.6-1.4,0.8l5,8.4H80.6z M73.2,7.7v8.6H75c1.5,0,2.6-0.4,3.3-1
				c0.8-0.7,1.1-1.8,1.1-3.2c0-1.4-0.3-2.5-1-3.3C77.8,8,76.6,7.7,75,7.7H73.2z"/>
			<path class="st2" d="M95.3,16.7h-6.6v7.4h7.4V26h-9.8V5.8h9.8v1.9h-7.4v7.1h6.6V16.7z"/>
			<path class="st2" d="M107.4,23.3L102.6,10v16h-2.3V5.8h3.1l5,14.4l4.6-14.4h3.1V26h-2.4V10l-4.4,13.4H107.4z"/>
			<path class="st2" d="M123.7,5.8v18.1h7.8V26h-10.1V5.8H123.7z"/>
			<path class="st2" d="M136.9,5.8V26h-2.4V5.8H136.9z"/>
			<path class="st2" d="M153.7,5.8V26h-3.1l-6.6-17v17h-2.2V5.8h3.2l6.5,16.8V5.8H153.7z"/>
			<path class="st2" d="M181.4,16.2c-0.1,1.1-0.3,2.1-0.6,3.1s-0.6,1.9-1.1,2.7l3.3,3.3l-1.5,1.3l-2.9-2.9c-0.7,0.8-1.5,1.4-2.5,1.8
				s-2.1,0.7-3.4,0.7c-0.8,0-1.6-0.1-2.3-0.4c-0.7-0.3-1.3-0.6-1.9-1.1c-0.5-0.5-0.9-1-1.2-1.6c-0.3-0.6-0.4-1.3-0.4-2
				c0-0.7,0.1-1.2,0.3-1.8s0.4-1,0.7-1.4c0.3-0.4,0.7-0.8,1.2-1.2c0.5-0.4,1-0.7,1.6-1.1c-0.4-0.4-0.8-0.8-1.1-1.2
				c-0.3-0.4-0.6-0.8-0.9-1.2c-0.3-0.4-0.5-0.8-0.6-1.2c-0.1-0.4-0.2-0.9-0.2-1.4c0-0.6,0.1-1.1,0.3-1.7c0.2-0.6,0.5-1,0.9-1.5
				c0.4-0.4,0.9-0.8,1.6-1c0.6-0.3,1.4-0.4,2.2-0.4c0.8,0,1.5,0.1,2.1,0.3c0.6,0.2,1.1,0.5,1.6,0.9c0.4,0.4,0.8,0.8,1,1.3
				c0.2,0.5,0.3,1,0.3,1.5c0,0.6-0.1,1.2-0.3,1.7c-0.2,0.5-0.5,1-0.8,1.4c-0.3,0.4-0.8,0.9-1.3,1.3c-0.5,0.4-1.1,0.8-1.8,1.2
				l4.7,4.8c0.3-0.7,0.6-1.4,0.7-2.2c0.2-0.8,0.3-1.6,0.3-2.4L181.4,16.2z M173.1,24.5c0.9,0,1.7-0.2,2.4-0.6
				c0.7-0.4,1.3-0.9,1.8-1.5l-5.4-5.5c-0.5,0.3-0.9,0.6-1.2,0.9c-0.3,0.3-0.6,0.6-0.8,0.9c-0.2,0.3-0.4,0.7-0.5,1s-0.2,0.8-0.2,1.2
				c0,0.4,0.1,0.8,0.2,1.2s0.4,0.8,0.7,1.1s0.7,0.6,1.2,0.8C171.8,24.4,172.4,24.5,173.1,24.5z M169.9,10.5c0,0.3,0,0.6,0.1,0.9
				s0.2,0.6,0.4,0.9c0.2,0.3,0.4,0.6,0.8,1c0.3,0.4,0.7,0.8,1.2,1.3c0.7-0.4,1.2-0.8,1.6-1.1s0.8-0.7,1-1s0.4-0.7,0.5-1
				s0.2-0.7,0.2-1.1c0-0.7-0.3-1.3-0.9-1.8c-0.6-0.5-1.2-0.7-2-0.7c-1,0-1.7,0.2-2.2,0.7S169.9,9.7,169.9,10.5z"/>
			<path class="st2" d="M204.9,26l-4.5-7.9h-2.9V26h-2.4V5.8h4.2c2.2,0,3.9,0.5,5.1,1.5c1.2,1,1.8,2.6,1.8,4.7c0,0.8-0.1,1.4-0.3,2
				s-0.4,1.1-0.8,1.6c-0.3,0.4-0.7,0.8-1.1,1.1c-0.4,0.3-0.9,0.6-1.4,0.8l5,8.4H204.9z M197.5,7.7v8.6h1.9c1.5,0,2.6-0.4,3.3-1
				c0.8-0.7,1.1-1.8,1.1-3.2c0-1.4-0.3-2.5-1-3.3c-0.7-0.8-1.9-1.1-3.5-1.1H197.5z"/>
			<path class="st2" d="M219.6,16.7H213v7.4h7.4V26h-9.8V5.8h9.8v1.9H213v7.1h6.6V16.7z"/>
			<path class="st2" d="M228.3,5.8c1.3,0,2.5,0.2,3.7,0.5c1.1,0.3,2.1,0.8,2.9,1.6c0.8,0.8,1.4,1.8,1.9,3.1c0.4,1.3,0.7,2.9,0.7,4.9
				c0,1.9-0.2,3.5-0.7,4.8s-1.1,2.3-1.9,3.1s-1.8,1.3-2.9,1.7c-1.1,0.3-2.3,0.5-3.6,0.5h-3.6V5.8H228.3z M227,7.6v16.5h1.2
				c1.1,0,2.1-0.1,3-0.4c0.8-0.3,1.5-0.8,2.1-1.4c0.5-0.7,0.9-1.5,1.2-2.5c0.3-1,0.4-2.3,0.4-3.8c0-2.9-0.5-5-1.6-6.3
				c-1.1-1.3-2.8-2-5.1-2H227z"/>
			<path class="st2" d="M255.6,7.3c-1,0-1.9,0.2-2.6,0.7c-0.7,0.5-1,1.3-1,2.3c0,0.5,0.1,0.9,0.2,1.3c0.1,0.4,0.3,0.7,0.7,1
				c0.3,0.3,0.7,0.6,1.2,0.9s1.1,0.5,1.9,0.8c0.7,0.3,1.4,0.6,2.1,0.9c0.7,0.3,1.2,0.7,1.7,1.2s0.9,1.1,1.2,1.8
				c0.3,0.7,0.4,1.5,0.4,2.5c0,0.8-0.2,1.5-0.5,2.2c-0.3,0.7-0.7,1.3-1.3,1.8c-0.6,0.5-1.2,0.9-2,1.2c-0.8,0.3-1.6,0.4-2.5,0.4
				c-0.9,0-1.8-0.1-2.5-0.3c-0.7-0.2-1.3-0.5-1.8-0.9s-0.9-0.8-1.2-1.3c-0.3-0.5-0.6-1-0.8-1.5l2-0.8c0.1,0.4,0.3,0.7,0.5,1.1
				s0.5,0.7,0.8,0.9s0.7,0.5,1.2,0.7c0.5,0.2,1,0.3,1.7,0.3c0.4,0,0.9-0.1,1.3-0.2c0.4-0.1,0.9-0.3,1.2-0.6c0.4-0.3,0.7-0.7,0.9-1.1
				c0.2-0.5,0.3-1,0.3-1.7c0-0.7-0.1-1.3-0.3-1.8c-0.2-0.5-0.5-0.9-0.8-1.2c-0.4-0.4-0.9-0.7-1.5-1s-1.4-0.6-2.2-1
				c-1.5-0.6-2.6-1.4-3.3-2.2c-0.7-0.9-1.1-2-1.1-3.2c0-0.7,0.1-1.4,0.4-2c0.3-0.6,0.6-1.2,1.1-1.6c0.5-0.5,1.1-0.8,1.8-1.1
				c0.7-0.3,1.5-0.4,2.5-0.4c1.6,0,2.8,0.3,3.7,1c0.9,0.6,1.6,1.5,2.1,2.6l-2.1,0.7c-0.3-0.8-0.8-1.4-1.3-1.8
				C257.4,7.5,256.6,7.3,255.6,7.3z"/>
			<path class="st2" d="M264.8,15.9c0-2,0.2-3.6,0.6-4.9c0.4-1.3,1-2.4,1.6-3.2s1.4-1.4,2.3-1.8s1.8-0.5,2.7-0.5s1.8,0.2,2.7,0.5
				s1.6,1,2.3,1.8s1.2,1.9,1.6,3.2c0.4,1.3,0.6,3,0.6,4.9c0,1.5-0.1,2.9-0.4,4c-0.3,1.1-0.6,2.1-1.1,2.9c-0.5,0.8-1,1.5-1.6,2
				c-0.6,0.5-1.3,0.9-1.9,1.1l4.1,2.5l-1.6,2.2l-5-4.3c-0.9,0-1.8-0.2-2.6-0.6s-1.6-1-2.2-1.8c-0.6-0.8-1.2-1.9-1.6-3.2
				C265,19.4,264.8,17.8,264.8,15.9z M267.3,15.9c0,2.8,0.4,5,1.2,6.5c0.8,1.5,2,2.2,3.6,2.2s2.8-0.7,3.6-2.2
				c0.8-1.5,1.2-3.6,1.2-6.5c0-2.8-0.4-5-1.2-6.5c-0.8-1.5-2-2.2-3.6-2.2s-2.8,0.7-3.6,2.2C267.7,10.9,267.3,13.1,267.3,15.9z"/>
			<path class="st2" d="M286,5.8v14.3c0,1.4,0.3,2.5,0.9,3.2s1.5,1.1,2.9,1.1c1.4,0,2.3-0.4,3-1.1s0.9-1.8,0.9-3.2V5.8h2.3v14.3
				c0,2.1-0.5,3.6-1.6,4.7c-1.1,1.1-2.6,1.6-4.5,1.6s-3.5-0.5-4.6-1.6c-1.1-1.1-1.6-2.6-1.6-4.7V5.8H286z"/>
			<path class="st2" d="M310.8,26l-1.5-5.4h-7.1l-1.5,5.4h-2.4l6-20.2h2.9l6,20.2H310.8z M302.8,18.8h6l-3-10.8L302.8,18.8z"/>
			<path class="st2" d="M325.9,26l-4.5-7.9h-2.9V26h-2.4V5.8h4.2c2.2,0,3.9,0.5,5.1,1.5c1.2,1,1.8,2.6,1.8,4.7c0,0.8-0.1,1.4-0.3,2
				s-0.4,1.1-0.8,1.6c-0.3,0.4-0.7,0.8-1.1,1.1c-0.4,0.3-0.9,0.6-1.4,0.8l5,8.4H325.9z M318.5,7.7v8.6h1.9c1.5,0,2.6-0.4,3.3-1
				c0.8-0.7,1.1-1.8,1.1-3.2c0-1.4-0.3-2.5-1-3.3s-1.9-1.1-3.5-1.1H318.5z"/>
			<path class="st2" d="M340.7,16.7h-6.6v7.4h7.4V26h-9.8V5.8h9.8v1.9h-7.4v7.1h6.6V16.7z"/>
		</g>
	</g>
</g>
</svg>
