<svg id="Layer_1" data-name="Layer 1" xmlns="http://www.w3.org/2000/svg" viewBox="0 0 99.48 58.1"><defs><style>.cls-1{fill:#808285;}</style></defs><title>Untitled-9</title><path id="path3791-1" class="cls-1" d="M8.82,0,0,25H8.08l3.57-10.12L14.09,25h7.7L30.38,0H22.3L18.68,10.52,16.15,0ZM88.89,11.19h0l.72-2.09H81.84L76.38,25h2l0,.06h5.69l0-.06h.06l2.91-8.46a3,3,0,0,1,.49-.56,2.67,2.67,0,0,1,1.78-.72,1.24,1.24,0,0,1,1.18.53,2.41,2.41,0,0,1-.1,1.81L88,25h7.65L99,14.76q1-3.2,0-4.72c-.66-1-1.85-1.53-3.59-1.53a8.52,8.52,0,0,0-3.49.7A13,13,0,0,0,88.89,11.19ZM36.23.51c-2.38,0-4.51,1.54-4.75,3.43S33,7.38,35.35,7.38s4.51-1.54,4.75-3.43S38.62.51,36.23.51ZM43.54,0h0L35,25H43l2.2-6.39L46.44,25h8.08L53,16.89,59.85,9H51.22l-4.46,5.13L51.62,0ZM38,9.09H30L24.5,25h8.08Zm30.74-1h0c3.11,0,5.56.7,7.12,2.17S78.09,14,77.6,17a9.71,9.71,0,0,1-4.24,6.8A14.63,14.63,0,0,1,65.2,26c-3.11,0-5.53-.87-7-2.49s-2-4-1.38-7A9.73,9.73,0,0,1,60.94,10,14.25,14.25,0,0,1,68.77,8.08ZM64.83,19.69a1.45,1.45,0,0,0,1.46.87,2.55,2.55,0,0,0,1.86-.77,5.77,5.77,0,0,0,1.34-2.59,5,5,0,0,0,.15-2.82,1.37,1.37,0,0,0-1.39-1,2.72,2.72,0,0,0-2,.87A5.82,5.82,0,0,0,64.92,17,4.54,4.54,0,0,0,64.83,19.69Z"/><path class="cls-1" d="M12,27.27c7.7,0,12.29,5.73,12.29,15.32S19.7,57.95,12,57.95H.28V51.25H2.88V34H.28V27.27Zm.24,28.35c6.33,0,10-4.75,10-13s-3.63-13-10-13H2.84v2H5.45v22H2.84v2Z"/><path class="cls-1" d="M12.2,31.7c4.18,0,7.2,3.58,7.2,10.88s-3.08,10.93-7.2,10.93h-4V31.7Zm0,19.48c4.51,0,4.86-6.29,4.86-8.59,0-2.94-.47-8.55-4.86-8.55H10.51V51.18Z"/><path class="cls-1" d="M64.11,27.12a10.7,10.7,0,0,1,6.08,3.23c2.76,3.09,4.08,6.93,4,11.74-.05,5.41-1.74,10.43-4.3,12.79a13.3,13.3,0,0,1-5.69,3l-1,.21V51.71l.28-.08.21-.06a5.31,5.31,0,0,0,2.43-1.81c1.19-1.63,2-3.54,2-7.57,0-4.32-1.13-6.25-2.24-7.57a4,4,0,0,0-2.09-1.44l-.58-.09V27Z"/><path class="cls-1" d="M60.46,27.15l.34,0,.5-.07v6.09l-.52.08a4,4,0,0,0-2.1,1.44c-1.11,1.32-2.23,3.25-2.23,7.57,0,4,.79,5.95,2,7.57a5.3,5.3,0,0,0,2.43,1.81l.45.13V58.1l-.94-.2a13.25,13.25,0,0,1-5.7-3c-2.56-2.36-4.25-7.38-4.3-12.79,0-4.81,1.27-8.65,4-11.74a10.86,10.86,0,0,1,6.07-3.24Z"/><path class="cls-1" d="M37.11,48.65A10.84,10.84,0,0,1,36.26,27v5.76a5.12,5.12,0,1,0,1.93,0V27h0A10.81,10.81,0,0,1,45,30.43c2.44,2.44,4,7.32,4.08,12.57,0,4.81-1.27,8.65-4,11.74A10.85,10.85,0,0,1,39,58h0l-.34,0-.5.07V52l.52-.08a4,4,0,0,0,2.1-1.44,8.43,8.43,0,0,0,1.73-3.28A10.79,10.79,0,0,1,37.11,48.65Z"/><path class="cls-1" d="M35.39,58a10.71,10.71,0,0,1-6.08-3.23,15.22,15.22,0,0,1-3.17-5.54h6.55a8.86,8.86,0,0,0,.9,1.28,4,4,0,0,0,2.09,1.44l.58.09v6.08Z"/></svg>